PathFileType	3	(X/Y/Z)	D:\Vicon Database\Healthy Subjects\S0040\Jan. 30, 2020\Force Plate Walk 5.trc
DataRate	CameraRate	NumFrames	NumMarkers	Units	OrigDataRate	OrigDataStartFrame	OrigNumFrames
100.0	100.0	6	53	mm	100.0	391	326	
Frame#	Time	right_foot_cluster2			right_foot_cluster3			sternum_cluster1			sternum_cluster2			sternum_cluster3			left_asis			right_asis			left_psis			right_psis			sacrum_cluster1			sacrum_cluster2			sacrum_cluster3			left_lat_femoral_epicondyle			left_anterior_thigh15			left_anterior_thigh25			left_anterior_thigh50			left_lateral_thigh25			left_lateral_thigh50			left_thigh_cluster1			left_thigh_cluster2			left_thigh_cluster3			left_fibular_head			left_tibial_tuberosity			left_anterior_shank30			left_lateral_malleolus			left_shank_cluster1			left_shank_cluster2			left_shank_cluster3			left_heel			left_metatarsal2			left_foot_cluster1			left_foot_cluster2			left_foot_cluster3			right_lat_femoral_epicondyle			right_anterior_thigh15			right_anterior_thigh25			right_anterior_thigh50			right_lateral_thigh25			right_lateral_thigh50			right_thigh_cluster1			right_thigh_cluster2			right_thigh_cluster3			right_fibular_head			right_tibial_tuberosity			right_lateral_distal_shank			right_anterior_shank30			right_lateral_malleolus			right_shank_cluster1			right_shank_cluster2			right_shank_cluster3			right_heel			right_metatarsal2			right_foot_cluster1			
		X1	Y1	Z1	X2	Y2	Z2	X3	Y3	Z3	X4	Y4	Z4	X5	Y5	Z5	X6	Y6	Z6	X7	Y7	Z7	X8	Y8	Z8	X9	Y9	Z9	X10	Y10	Z10	X11	Y11	Z11	X12	Y12	Z12	X13	Y13	Z13	X14	Y14	Z14	X15	Y15	Z15	X16	Y16	Z16	X17	Y17	Z17	X18	Y18	Z18	X19	Y19	Z19	X20	Y20	Z20	X21	Y21	Z21	X22	Y22	Z22	X23	Y23	Z23	X24	Y24	Z24	X25	Y25	Z25	X26	Y26	Z26	X27	Y27	Z27	X28	Y28	Z28	X29	Y29	Z29	X30	Y30	Z30	X31	Y31	Z31	X32	Y32	Z32	X33	Y33	Z33	X34	Y34	Z34	X35	Y35	Z35	X36	Y36	Z36	X37	Y37	Z37	X38	Y38	Z38	X39	Y39	Z39	X40	Y40	Z40	X41	Y41	Z41	X42	Y42	Z42	X43	Y43	Z43	X44	Y44	Z44	X45	Y45	Z45	X46	Y46	Z46	X47	Y47	Z47	X48	Y48	Z48	X49	Y49	Z49	X50	Y50	Z50	X51	Y51	Z51	X52	Y52	Z52	X53	Y53	Z53	
391	3.9	1608.6399	136.43431	-197.83009	1608.6281	138.55524	-235.33492	1503.4077	1455.4572	-127.84898	1490.6893	1427.8639	-120.63115	1494.1588	1431.3694	-158.52864	1511.0929	1077.5322	-15.288561	1522.936	1080.0503	-264.01047	1679.4243	1091.4136	-56.871155	1686.7886	1090.2323	-174.46385	1691.7738	1147.89	-123.24466	1699.9188	1122.869	-133.93936	1700.1068	1118.5669	-94.743057	1547.1587	544.37262	-2.3618829	1460.7117	629.86182	-58.066734	1447.0782	715.3067	-39.787735	1454.928	853.33594	-14.519923	1553.6406	697.19489	24.395033	1552.0537	844.65277	55.390705	1554.3613	797.6593	60.090508	1555.5106	768.17944	55.461124	1519.2548	779.26147	57.253788	1546.5037	463.05933	1.2169974	1496.0807	453.13327	-58.437618	1551.0836	205.5219	-75.038994	1618.1216	99.369598	-46.694237	1505.045	398.57617	-87.945145	1503.2889	370.57349	-80.666245	1520.9642	374.21219	-114.78281	1693.4254	65.188087	-81.696274	1474.2896	69.051628	-82.535172	1535.5874	117.03887	-78.062881	1511.4543	101.57825	-67.126663	1506.853	105.89164	-104.98051	1444.041	547.16077	-284.29532	1373.0001	645.7168	-236.20189	1384.8387	730.59656	-232.38637	1433.4844	854.00415	-233.29834	1488.191	695.10846	-300.73126	1539.2395	835.37897	-320.08893	1528.1278	783.94635	-327.22028	1509.6865	761.78473	-325.61792	1545.3921	749.51984	-315.81958	1469.9547	491.11548	-287.90454	1423.7467	458.21878	-242.31491	1639.7006	287.84161	-260.41632	1592.9724	271.30383	-215.68867	1702.8666	203.39255	-243.36208	1472.3014	409.53848	-182.82333	1493.5917	391.60529	-175.18021	1477.1449	376.19876	-205.11906	1781.799	219.89256	-202.68259	1604.9885	91.800377	-207.37447	1620.4895	161.25146	-206.36781
392	3.91	1567.1819	133.03658	-198.40263	1567.4419	135.60263	-235.82846	1489.6102	1456.7806	-127.93948	1477.016	1429.08	-120.75771	1480.693	1432.6001	-158.66483	1498.141	1078.1515	-14.758062	1509.8737	1082.2407	-263.116	1666.2104	1093.1948	-56.603054	1673.6456	1092.2458	-174.13846	1678.6023	1149.665	-122.55405	1685.8274	1124.2867	-133.59979	1686.1741	1119.8544	-94.3918	1544.3159	544.92651	-2.5200903	1455.6416	628.52295	-57.524628	1439.917	713.67957	-39.008049	1444.837	852.06873	-13.668091	1547.6978	697.7373	24.209282	1542.5677	845.01215	55.142006	1546.5554	798.07324	59.473671	1548.0155	769.12567	54.88134	1511.6508	779.18073	57.438366	1544.8438	463.58105	1.3465557	1493.6219	453.00656	-57.707298	1549.8291	205.7991	-74.883881	1617.7267	99.78331	-46.847111	1502.5033	398.5097	-87.338028	1499.632	371.00571	-79.793419	1518.3738	374.15887	-114.28931	1693.3323	65.498932	-81.84185	1474.09	68.864372	-82.624939	1535.3107	117.02128	-78.177956	1511.1544	101.54523	-67.255272	1506.7849	105.81482	-105.07994	1424.0981	551.40063	-284.19064	1354.2939	651.80505	-236.13747	1367.6844	736.72064	-231.98456	1418.8781	858.72809	-232.51007	1470.3427	699.28931	-301.44611	1523.3931	838.70966	-320.46362	1511.4562	787.50543	-327.94302	1492.291	765.74005	-326.69614	1528.5199	752.78601	-316.80359	1448.527	494.03534	-287.25192	1400.0732	463.03488	-242.446	1607.2732	281.53589	-259.02304	1559.1982	267.45526	-215.16432	1666.2892	193.76321	-241.65329	1445.8606	412.06113	-183.06915	1466.0321	392.78049	-175.12775	1448.9075	378.24088	-205.11386	1745.5099	204.68024	-200.08372	1560.2665	89.145096	-208.15996	1580.36	157.51187	-206.69214
393	3.92	1525.198	129.92062	-199.31509	1526.354	132.19167	-236.74329	1475.8594	1457.6661	-128.03427	1463.4148	1429.951	-120.93814	1467.0533	1433.5037	-158.83353	1485.2051	1078.5304	-14.133533	1496.6866	1084.1982	-262.22507	1653.0278	1094.1945	-56.447823	1660.498	1093.9652	-173.91594	1665.8108	1151.3822	-121.8173	1672.6603	1125.8177	-133.11394	1672.7574	1121.1199	-93.981972	1541.1375	545.58282	-2.4771588	1450.4868	627.24402	-56.831806	1432.7585	712.08069	-38.056587	1434.8999	850.63348	-12.667544	1541.7975	698.28558	23.955942	1533.6421	845.2135	55.306381	1538.2723	798.86322	59.290379	1541.241	769.60376	55.240143	1504.0632	779.0556	57.563984	1542.8147	464.04138	1.4479574	1491.3192	452.84183	-57.14933	1548.912	206.06291	-74.762337	1617.463	100.14519	-47.178818	1500.8634	398.34641	-87.029976	1499.4402	370.26071	-79.595528	1516.473	373.94116	-114.06116	1693.1947	65.754669	-81.999214	1473.931	68.664322	-82.755989	1534.9708	116.97888	-78.422691	1510.9856	101.39602	-67.544762	1506.6042	105.66093	-105.29612	1404.8585	555.23633	-284.22757	1336.1251	657.33026	-236.00209	1350.9589	742.2995	-231.45528	1404.5093	862.95343	-231.63707	1452.1083	703.28906	-302.53403	1508.0505	841.83142	-321.20847	1494.667	790.75623	-329.00293	1475.2375	769.32397	-327.39172	1510.8359	755.69708	-317.89954	1428.001	496.47617	-286.76016	1377.4063	467.4505	-243.01584	1574.1531	274.8663	-258.48218	1525.3806	263.3912	-215.11801	1628.3578	183.46977	-240.7476	1418.8638	414.33353	-183.77769	1438.7424	393.43811	-175.74422	1420.9088	380.03568	-205.69144	1707.8788	189.25638	-197.83003	1514.2974	87.084091	-209.26842	1539.5386	153.79852	-207.55341
394	3.93	1482.3713	126.93291	-200.53896	1484.0748	129.34926	-237.96738	1461.9912	1458.3993	-128.18816	1449.5243	1430.6395	-121.12626	1453.2295	1434.1489	-158.97565	1472.1813	1078.6368	-13.568043	1483.4502	1085.7209	-261.41534	1639.8785	1094.9559	-56.336876	1647.2953	1095.2213	-173.80704	1652.5012	1152.65	-121.4761	1659.4064	1126.9559	-132.82632	1659.5438	1122.1467	-93.696846	1537.9453	545.94916	-2.4303467	1445.3237	625.77136	-56.171722	1425.6941	710.29291	-37.112747	1424.5731	849.16779	-11.410579	1535.8441	698.7467	23.772114	1524.7689	845.27869	55.271751	1530.7823	798.98816	59.339256	1533.6239	769.72601	54.904205	1496.2705	778.73248	57.630188	1540.3196	464.4198	1.5089581	1488.9043	452.69058	-56.925224	1547.9004	206.33862	-74.861382	1617.2341	100.61208	-47.442516	1498.6447	398.36884	-86.957253	1497.6364	370.21347	-79.5896	1514.4235	374.11581	-114.06891	1693.1077	66.187798	-82.116837	1473.6946	68.411064	-82.888412	1534.639	116.88203	-78.75338	1510.5426	101.50757	-67.606621	1506.3927	105.5441	-105.76541	1386.3177	558.56714	-284.34659	1318.5094	662.28674	-235.90854	1334.4237	747.30042	-230.79546	1390.3145	866.65063	-230.75723	1434.3505	706.66553	-303.11548	1491.8706	844.7912	-322.64014	1478.3605	793.67719	-330.05051	1458.411	772.74902	-328.97617	1493.7659	758.33948	-319.39346	1408.3818	498.67178	-286.28323	1355.4489	471.66907	-243.85509	1541.6097	268.18341	-257.65839	1491.2642	259.25195	-215.46205	1589.653	173.1992	-240.08823	1392.4176	415.96646	-184.66699	1411.245	393.82303	-176.51886	1393.1938	381.60181	-206.85228	1668.9427	173.98866	-196.17937	1469.7205	84.661873	-210.56094	1498.4866	149.91096	-208.43549
395	3.94	1439.0719	124.93944	-202.02068	1442.0514	126.46817	-239.42931	1448.0813	1458.803	-128.41266	1435.5601	1431.0227	-121.28176	1439.6384	1434.475	-159.1015	1459.2891	1078.3311	-12.939255	1470.0366	1086.7292	-260.5968	1626.584	1095.5541	-56.430199	1634.1486	1096.2961	-173.774	1638.8303	1153.0199	-121.40353	1646.3016	1128.0391	-132.5679	1646.199	1122.7853	-93.560005	1534.7926	546.33716	-2.299927	1439.4055	624.40155	-55.188457	1418.554	708.4201	-36.084064	1414.7266	847.52271	-10.160206	1529.8431	699.06696	23.662601	1515.8945	845.19	55.298374	1523.026	799.17145	59.165871	1526.2551	770.04828	54.639248	1488.8508	778.34918	57.846333	1537.4629	464.81757	1.4489534	1486.3804	452.439	-56.854664	1547.4839	206.37064	-75.018944	1616.7693	101.02898	-47.895409	1496.4795	398.37823	-87.043808	1495.5773	370.3248	-79.662918	1512.658	374.03046	-114.17596	1692.9205	66.590698	-82.338806	1473.0731	68.4841	-82.90139	1534.2174	117.04547	-78.852806	1510.1394	101.51431	-67.846985	1506.1947	105.42266	-106.02847	1368.234	561.41528	-284.61923	1301.3604	666.68518	-235.75755	1318.6788	751.54004	-230.08215	1376.2599	869.7124	-229.72142	1416.9697	709.84204	-304.2522	1476.2848	847.35571	-323.78806	1461.7795	796.38843	-331.17255	1441.7289	775.63055	-329.5061	1476.9397	760.71014	-321.16205	1389.2949	500.31091	-285.85229	1334.2308	475.57034	-244.76102	1508.105	261.40588	-257.58273	1456.7869	255.33257	-216.29979	1549.8374	163.16827	-239.81107	1366.7291	417.01776	-185.77026	1383.7603	393.84973	-177.45128	1365.8007	383.04163	-208.38191	1628.1917	158.05209	-195.2417	1424.0093	83.219055	-212.05618	1457.1063	146.31746	-209.67659
396	3.95	1395.8468	122.98856	-203.69009	1399.2822	124.35653	-241.00569	1434.0874	1458.8639	-128.54445	1421.6278	1431.1069	-121.44985	1425.7953	1434.5177	-159.27049	1446.3591	1077.7832	-12.245038	1456.4489	1087.3188	-259.90445	1613.7106	1096.0958	-56.406277	1620.9875	1096.9259	-173.88231	1625.4845	1153.4979	-121.31299	1633.2336	1128.7646	-132.41107	1632.8997	1123.1488	-93.585617	1531.1627	546.53265	-2.2596335	1434.7463	622.57147	-54.450134	1411.3864	706.37463	-34.985649	1404.7672	845.47119	-9.0861282	1524.1313	699.16479	23.897442	1506.969	844.98749	55.299744	1514.8951	799.3313	59.165337	1519.1318	769.92059	55.29306	1481.1918	777.77875	58.171383	1534.6106	465.07486	1.2513148	1483.807	452.1983	-56.935768	1546.0814	206.61902	-75.390366	1616.3745	101.55975	-48.257084	1494.2335	398.30774	-87.241524	1493.517	370.26852	-79.811569	1510.2406	374.35388	-114.33633	1692.7682	67.019058	-82.606354	1473.0911	67.926125	-83.222214	1533.9106	116.8558	-79.24807	1509.8285	101.49247	-68.003532	1505.868	105.2375	-106.41168	1351.4692	563.5354	-284.63651	1284.85	670.36676	-235.58057	1303.2969	754.91541	-229.26807	1362.3123	872.07056	-228.74257	1399.7072	712.69952	-305.26691	1460.4814	849.58063	-325.10638	1445.4052	798.65045	-332.33987	1424.9089	778.22949	-330.4809	1460.2028	762.78094	-322.88144	1370.6967	501.33127	-285.57144	1313.8505	479.06412	-245.72688	1475.1527	254.92915	-257.32568	1422.2333	251.56247	-217.56949	1509.7382	153.6635	-239.82253	1340.8093	418.16809	-187.22038	1356.6262	393.7207	-178.87926	1338.1779	384.61307	-210.23705	1587.0271	143.3503	-194.58244	1377.8566	82.691895	-213.82654	1415.3729	143.26738	-211.28629
